<svg version="1.2" xmlns="http://www.w3.org/2000/svg" viewBox="0 0 256 300" width="256" height="300"><style>.a{fill:#00a859}.b{fill:#201e1e}.c{fill:#fefefe}.d{fill:#f7d835}.e{fill:#373435}.f{fill:#ed3237}</style><path fill-rule="evenodd" class="a" d="m126.9 260.3c-69.2-30.3-97.7-68.2-91.3-182.3 14.6-3.9 24.4-12.7 30.5-25.1 2.4-4.8 2.2-6.2 7.2-8.7 32.3-16.1 74.8-16.1 107.1 0 5 2.5 4.8 3.9 7.2 8.7 6.1 12.4 15.9 21.2 30.5 25.1 6.4 114.1-22.1 152.1-91.3 182.3z"/><path class="b" d="m126.5 261.1c-34.7-15.2-59.3-32.3-74.4-60.1-15-27.7-20.6-65.8-17.3-123v-0.7l0.6-0.1c7.2-2 13.2-5.1 18.1-9.3 4.9-4.1 8.8-9.3 11.8-15.4 0.5-0.9 0.8-1.6 1.1-2.3 1.5-3.2 2.2-4.6 6.5-6.7 16.3-8.2 35.1-12.2 54-12.2 18.8 0 37.6 4 53.9 12.2 4.4 2.1 5 3.5 6.5 6.7 0.3 0.7 0.6 1.4 1.1 2.3 3 6.1 6.9 11.3 11.8 15.4 5 4.2 10.9 7.3 18.1 9.3l0.6 0.1 0.1 0.7c3.2 57.2-2.4 95.4-17.4 123-15.1 27.8-39.7 44.9-74.4 60.1l-0.3 0.2zm-72.8-61c14.8 27.3 38.9 44.2 73.1 59.2 34.2-15 58.4-31.9 73.2-59.2 14.8-27.2 20.3-64.9 17.2-121.4-7.2-2.1-13.2-5.2-18.2-9.4-5.1-4.4-9.1-9.7-12.3-16q-0.6-1.3-1.1-2.4c-1.3-2.8-1.8-4-5.6-5.9-16.1-8-34.6-12-53.2-12-18.5 0-37.1 4-53.1 12-3.8 1.9-4.4 3.1-5.7 5.9q-0.5 1.1-1.1 2.4c-3.1 6.2-7.2 11.6-12.3 16-5 4.2-11 7.3-18.1 9.4-3.2 56.5 2.3 94.2 17.2 121.4z"/><path fill-rule="evenodd" class="c" d="m103.3 118.9c-3.3-2.2-7.9-1.6-9.8 0.9-3 3.8 2.7 6.8 3.2 5.3 1.1-2.7 3.9-5.2 6.6-6.2z"/><path class="b" d="m97.9 117c1.9-0.2 4 0.2 5.7 1.4l0.9 0.6-1 0.4c-1.3 0.5-2.6 1.4-3.8 2.5-1 1-1.9 2.2-2.4 3.4-0.2 0.7-0.8 0.9-1.6 0.8-0.5-0.1-1.1-0.3-1.6-0.7-0.5-0.3-1-0.8-1.4-1.4-0.8-1.2-1-2.8 0.3-4.6 1.1-1.4 2.9-2.3 4.9-2.4zm4.1 1.8c-1.3-0.6-2.6-0.8-3.9-0.7-1.7 0.2-3.3 0.9-4.1 2-1 1.3-0.9 2.4-0.3 3.3 0.3 0.4 0.7 0.8 1.1 1 0.4 0.3 0.8 0.5 1.1 0.5 0.2 0 0.3 0 0.3 0 0.5-1.4 1.5-2.8 2.7-3.9 0.9-0.9 2-1.7 3.1-2.2z"/><path fill-rule="evenodd" class="c" d="m96.5 125.4c-4.2-0.5-8.8 1.3-9.5 4.7-1 4.9 4.5 6.5 4.8 4.1 0.5-3.9 2.3-6.5 4.7-8.8z"/><path class="b" d="m89.9 125.9c1.9-1 4.3-1.4 6.6-1.1l1.3 0.1-0.9 0.9c-1.2 1.1-2.2 2.3-3 3.7-0.7 1.4-1.3 2.9-1.5 4.8-0.2 0.9-0.7 1.4-1.5 1.5q-0.7 0.2-1.4 0-0.7-0.2-1.3-0.7c-1.3-0.9-2.3-2.7-1.8-5.1 0.4-1.9 1.7-3.2 3.5-4.1zm5.3 0c-1.7 0-3.4 0.3-4.8 1-1.4 0.7-2.5 1.9-2.8 3.3-0.4 1.9 0.3 3.3 1.3 3.9q0.4 0.4 0.9 0.5 0.5 0.1 0.8 0.1c0.3-0.1 0.6-0.3 0.6-0.6 0.3-2 0.9-3.7 1.7-5.2q1-1.6 2.3-3z"/><path fill-rule="evenodd" class="c" d="m92 135.2c-4.2-0.5-8.4 3.1-9.2 6.5-0.7 3.6 2.8 4.8 4.9 4.2 2.6-0.7 2.5-8.1 4.3-10.7z"/><path class="b" d="m86 136.4c1.7-1.3 3.9-2 6-1.8l1 0.1-0.5 0.8c-0.7 1-1.1 2.8-1.5 4.6-0.6 2.9-1.2 5.9-3.1 6.4-0.7 0.1-1.5 0.2-2.3 0-0.8-0.1-1.4-0.4-2-0.9-0.6-0.4-1.1-1.1-1.3-1.9-0.2-0.6-0.2-1.3 0-2.1 0.4-1.9 1.8-3.9 3.7-5.2zm5-0.7c-1.5 0.1-3.1 0.7-4.3 1.6-1.7 1.2-2.9 2.9-3.3 4.5q-0.1 1 0 1.6 0.3 0.8 0.9 1.3c0.4 0.3 1 0.6 1.5 0.7 0.6 0.1 1.3 0.1 1.8-0.1 1.2-0.3 1.7-2.9 2.3-5.4 0.3-1.5 0.6-3 1.1-4.2z"/><path fill-rule="evenodd" class="c" d="m90.7 144.7c-4.1 1-6.9 6.1-6.4 9.8 0.5 3.9 4.2 3.8 6 2.5 2.2-1.6-0.3-9 0.4-12.3z"/><path class="b" d="m85.4 148.1c1.2-1.9 3-3.4 5.1-4l1-0.2-0.2 0.9c-0.3 1.3-0.1 3.2 0.2 5.2 0.4 3.1 0.8 6.3-0.8 7.4-0.6 0.5-1.5 0.8-2.3 0.9-0.7 0.1-1.4 0.1-2.1-0.1-0.6-0.3-1.2-0.7-1.7-1.3-0.4-0.6-0.8-1.4-0.9-2.3-0.3-2.1 0.4-4.5 1.7-6.5zm4.6-2.5c-1.5 0.6-2.7 1.7-3.6 3.1-1.1 1.8-1.7 3.9-1.5 5.7q0.2 1.1 0.6 1.8 0.5 0.6 1.2 0.8c0.5 0.2 1 0.2 1.5 0.2 0.7-0.1 1.3-0.4 1.8-0.7 1-0.7 0.7-3.6 0.3-6.4-0.2-1.6-0.4-3.2-0.3-4.5z"/><path fill-rule="evenodd" class="c" d="m91.7 155.1c-2.7 1.9-4.3 7.7-2.9 11.3 1.4 3.7 5.2 2.2 6.5 0.4 1.6-2.2-3.2-8.4-3.6-11.7z"/><path class="b" d="m88.1 160c0.6-2.3 1.8-4.3 3.2-5.4l0.9-0.6 0.1 1c0.1 1.3 1 3.1 1.8 4.8 1.4 2.9 2.8 5.7 1.7 7.3-0.5 0.8-1.4 1.5-2.4 1.8-0.6 0.3-1.2 0.4-1.8 0.4-0.6-0.1-1.3-0.2-1.8-0.6-0.6-0.5-1.2-1.1-1.5-2.1-0.8-1.9-0.7-4.3-0.2-6.5zm3.2-3.9c-0.9 1-1.6 2.5-2 4.1-0.5 2.1-0.6 4.3 0.1 5.9 0.3 0.7 0.6 1.2 1.1 1.5q0.5 0.4 1.2 0.4 0.6 0 1.3-0.2c0.8-0.3 1.4-0.9 1.8-1.4 0.8-1.1-0.5-3.6-1.7-6.1-0.7-1.5-1.4-2.9-1.8-4.2z"/><path fill-rule="evenodd" class="c" d="m96.5 165c-2.3 3.8-2.2 9.5-0.3 12.6 2.8 4.5 6.6 2.6 6.9-0.6 0.2-2.7-5.5-8.8-6.6-12z"/><path class="b" d="m94.2 171.4c0.1-2.3 0.6-4.7 1.8-6.7l0.7-1.1 0.4 1.2c0.4 1.3 1.6 3 2.9 4.9 1.9 2.7 3.9 5.5 3.7 7.4-0.1 1-0.5 1.9-1.1 2.5-0.5 0.6-1.2 0.9-1.9 1.1-0.7 0.2-1.4 0.1-2.2-0.2-1-0.4-1.9-1.3-2.8-2.6-1-1.7-1.5-4.1-1.5-6.5zm2.3-5c-0.7 1.5-1 3.3-1.1 5 0 2.2 0.4 4.4 1.3 5.9 0.7 1.1 1.5 1.8 2.3 2.1 0.5 0.2 1 0.3 1.5 0.1 0.4-0.1 0.9-0.3 1.2-0.7 0.5-0.5 0.8-1.1 0.8-1.9 0.2-1.4-1.7-4-3.4-6.6-1-1.4-2-2.8-2.6-4z"/><path fill-rule="evenodd" class="c" d="m104.5 175.2c-2.5 4.1-2.4 10.1-0.4 13.5 3 4.8 7.1 2.7 7.4-0.7 0.3-2.9-5.9-9.4-7-12.8z"/><path class="b" d="m102 182c0.1-2.5 0.7-5.1 1.9-7.2l0.7-1.1 0.4 1.2c0.5 1.4 1.8 3.3 3.2 5.3 2 2.9 4.1 6 3.9 7.9-0.1 1.1-0.5 2-1.2 2.7-0.5 0.6-1.2 1-1.9 1.2-0.8 0.1-1.6 0.1-2.5-0.3-1-0.4-2-1.3-2.9-2.8-1.1-1.8-1.7-4.3-1.6-6.9zm2.4-5.5c-0.8 1.7-1.2 3.6-1.2 5.5-0.1 2.4 0.4 4.7 1.4 6.3 0.8 1.3 1.6 2 2.4 2.3 0.6 0.3 1.1 0.3 1.7 0.2 0.5-0.1 0.9-0.4 1.3-0.8 0.5-0.5 0.8-1.2 0.9-2 0.1-1.5-1.8-4.4-3.7-7.1-1.1-1.6-2.2-3.1-2.8-4.4z"/><path fill-rule="evenodd" class="c" d="m113.1 183c-2 4.5-1.2 10.6 1.2 13.8 3.6 4.6 7.6 2 7.5-1.5-0.1-3-7.1-9-8.7-12.3z"/><path class="b" d="m111.4 190.2c-0.2-2.5 0.1-5.2 1.1-7.5l0.6-1.1 0.5 1.1c0.6 1.3 2.2 3.1 3.8 5 2.5 2.8 4.9 5.6 5 7.6 0 1.1-0.3 2.1-0.9 2.9-0.5 0.7-1.1 1.2-1.9 1.4-0.7 0.3-1.6 0.3-2.4 0.1-1.1-0.4-2.3-1.1-3.3-2.5-1.4-1.7-2.3-4.3-2.5-7zm1.8-5.9c-0.6 1.9-0.8 3.9-0.6 5.8 0.2 2.5 1 4.8 2.2 6.3 0.9 1.2 1.8 1.9 2.7 2.1 0.6 0.2 1.2 0.2 1.7 0 0.5-0.2 1-0.5 1.3-1 0.4-0.6 0.7-1.3 0.7-2.2-0.1-1.5-2.4-4.2-4.7-6.8-1.3-1.5-2.5-2.9-3.3-4.2z"/><path fill-rule="evenodd" class="d" d="m151.4 118.9c3.3-2.2 7.9-1.6 9.8 0.9 3 3.8-2.7 6.8-3.2 5.3-1.1-2.7-3.9-5.2-6.6-6.2z"/><path class="b" d="m151.1 118.4c1.7-1.2 3.8-1.6 5.7-1.4 2 0.2 3.8 1 4.9 2.4 1.4 1.8 1.1 3.4 0.3 4.6-0.3 0.6-0.8 1.1-1.4 1.4-0.5 0.4-1.1 0.6-1.6 0.7-0.7 0.1-1.3-0.1-1.6-0.7-0.5-1.3-1.3-2.5-2.4-3.5-1.1-1.1-2.5-2-3.8-2.5l-1-0.4 0.9-0.6zm5.6-0.3c-1.3-0.1-2.7 0.1-3.9 0.7 1 0.6 2.1 1.3 3 2.2 1.2 1.2 2.2 2.5 2.7 3.9q0.1 0.1 0.3 0c0.4 0 0.8-0.2 1.2-0.4 0.4-0.3 0.8-0.7 1.1-1.1 0.5-0.8 0.7-2-0.3-3.2-0.9-1.2-2.4-1.9-4.1-2.1z"/><path fill-rule="evenodd" class="d" d="m158.2 125.4c4.2-0.5 8.8 1.3 9.5 4.7 1 4.9-4.5 6.5-4.8 4.1-0.5-3.9-2.3-6.5-4.7-8.8z"/><path class="b" d="m158.2 124.8c2.2-0.3 4.7 0.1 6.6 1.1 1.8 0.9 3.1 2.2 3.5 4.1 0.5 2.4-0.5 4.2-1.8 5.1q-0.6 0.5-1.3 0.7-0.7 0.2-1.3 0c-0.8-0.1-1.4-0.6-1.6-1.5-0.2-1.9-0.8-3.4-1.5-4.8-0.8-1.4-1.8-2.6-3-3.7l-0.9-0.9 1.3-0.1zm6.1 2.1c-1.4-0.6-3.1-1-4.7-1 0.8 0.9 1.6 1.9 2.2 3 0.8 1.5 1.4 3.2 1.7 5.3 0.1 0.2 0.3 0.4 0.6 0.5q0.3 0.1 0.8-0.1 0.5-0.1 1-0.4c0.9-0.7 1.6-2.1 1.2-4-0.2-1.4-1.3-2.5-2.8-3.3z"/><path fill-rule="evenodd" class="d" d="m162.8 135.2c4.1-0.5 8.3 3.1 9 6.5 0.8 3.6-2.7 4.8-4.9 4.2-2.5-0.7-2.4-8.1-4.2-10.7z"/><path class="b" d="m162.7 134.6c2.1-0.2 4.3 0.5 6.1 1.8 1.8 1.3 3.3 3.3 3.6 5.2q0.3 1.2 0 2.1c-0.2 0.8-0.7 1.5-1.3 1.9-0.5 0.5-1.2 0.8-1.9 0.9-0.9 0.2-1.7 0.2-2.4 0-1.9-0.5-2.5-3.5-3.1-6.4-0.4-1.8-0.8-3.6-1.4-4.6l-0.5-0.8 0.9-0.1zm5.4 2.7c-1.3-0.9-2.8-1.5-4.4-1.6 0.5 1.2 0.8 2.7 1.1 4.2 0.6 2.5 1.1 5.1 2.3 5.4 0.6 0.2 1.2 0.2 1.8 0.1 0.6-0.2 1.1-0.4 1.5-0.7 0.4-0.3 0.7-0.8 0.9-1.3q0.2-0.7 0-1.6c-0.3-1.6-1.6-3.3-3.2-4.5z"/><path fill-rule="evenodd" class="d" d="m164 144.7c4.1 1 6.9 6.1 6.4 9.8-0.5 3.9-4.2 3.8-6 2.5-2.2-1.6 0.3-9-0.4-12.3z"/><path class="b" d="m164.2 144.1c2.1 0.6 3.9 2.1 5.1 4 1.3 2 2 4.4 1.7 6.5-0.1 0.9-0.4 1.7-0.9 2.3-0.4 0.6-1.1 1-1.7 1.3-0.7 0.2-1.4 0.2-2.1 0.1-0.8-0.1-1.6-0.4-2.3-0.9-1.5-1.1-1.1-4.3-0.8-7.4 0.3-2 0.5-3.9 0.3-5.2l-0.2-0.9 0.9 0.2zm4.1 4.6c-0.9-1.4-2.1-2.6-3.6-3.2 0.1 1.4-0.1 3-0.3 4.6-0.3 2.8-0.7 5.6 0.3 6.4 0.5 0.3 1.1 0.6 1.8 0.7 0.5 0 1 0 1.5-0.2q0.7-0.2 1.2-0.8 0.5-0.7 0.6-1.8c0.3-1.8-0.3-3.9-1.5-5.7z"/><path fill-rule="evenodd" class="d" d="m163 155.1c2.7 1.9 4.3 7.7 2.9 11.3-1.4 3.7-5.2 2.2-6.5 0.4-1.6-2.2 3.2-8.4 3.6-11.7z"/><path class="b" d="m163.4 154.6c1.4 1 2.6 3.1 3.2 5.4 0.5 2.3 0.6 4.7-0.2 6.6-0.3 1-0.9 1.6-1.5 2-0.5 0.4-1.2 0.6-1.8 0.6-0.6 0.1-1.2-0.1-1.8-0.3-1-0.4-1.9-1-2.4-1.8-1.1-1.6 0.3-4.4 1.7-7.3 0.8-1.8 1.7-3.6 1.8-4.8l0.2-1 0.8 0.6zm2 5.7c-0.4-1.6-1.1-3.1-2-4.1-0.4 1.2-1.1 2.7-1.8 4.1-1.2 2.6-2.5 5.1-1.7 6.1 0.4 0.6 1 1.1 1.8 1.4q0.7 0.3 1.3 0.3 0.7-0.1 1.2-0.4c0.5-0.3 0.8-0.8 1.1-1.5 0.7-1.7 0.6-3.9 0.1-5.9z"/><path fill-rule="evenodd" class="d" d="m158.2 165c2.3 3.8 2.2 9.5 0.3 12.6-2.8 4.5-6.6 2.6-6.9-0.6-0.2-2.7 5.5-8.8 6.6-12z"/><path class="b" d="m158.7 164.7c1.2 2 1.7 4.4 1.8 6.7 0 2.4-0.5 4.8-1.5 6.5-0.9 1.4-1.8 2.2-2.8 2.6-0.8 0.3-1.5 0.4-2.2 0.2-0.7-0.1-1.4-0.5-1.9-1.1-0.6-0.6-1-1.5-1.1-2.5-0.1-1.8 1.8-4.7 3.7-7.4 1.3-1.8 2.5-3.6 2.9-4.9l0.5-1.2 0.6 1.1zm0.6 6.7c0-1.7-0.4-3.5-1.1-5-0.6 1.2-1.6 2.6-2.5 4-1.8 2.5-3.6 5.2-3.5 6.6 0.1 0.7 0.4 1.4 0.8 1.9q0.5 0.5 1.3 0.7 0.7 0.2 1.5-0.2c0.7-0.3 1.5-0.9 2.2-2.1 0.9-1.5 1.4-3.6 1.3-5.8z"/><path fill-rule="evenodd" class="d" d="m150.3 175.2c2.4 4.1 2.3 10.1 0.3 13.5-3 4.8-7.1 2.7-7.4-0.7-0.3-2.9 5.9-9.4 7-12.8z"/><path class="b" d="m150.8 174.8c1.2 2.1 1.8 4.7 1.9 7.2 0 2.6-0.5 5.2-1.6 7-0.9 1.4-1.9 2.3-3 2.7-0.8 0.4-1.6 0.5-2.4 0.3-0.7-0.2-1.4-0.6-1.9-1.2-0.7-0.7-1.1-1.6-1.2-2.7-0.2-1.9 1.9-5 3.9-7.9 1.4-2 2.7-3.9 3.2-5.2l0.4-1.2 0.6 1.1zm0.8 7.1c-0.1-1.8-0.5-3.8-1.2-5.5-0.7 1.3-1.7 2.8-2.8 4.4-1.9 2.7-3.9 5.6-3.7 7.1 0 0.8 0.4 1.5 0.8 2 0.4 0.4 0.9 0.7 1.4 0.8 0.5 0.2 1.1 0.1 1.7-0.1 0.8-0.4 1.6-1.1 2.3-2.3 1-1.7 1.5-4 1.5-6.4z"/><path fill-rule="evenodd" class="d" d="m141.6 183c2 4.5 1.2 10.6-1.2 13.8-3.6 4.6-7.6 2-7.5-1.5 0.1-3 7.1-9 8.7-12.3z"/><path class="b" d="m142.2 182.7c1 2.3 1.3 5 1.1 7.6-0.3 2.6-1.1 5.2-2.5 6.9-1.1 1.4-2.2 2.2-3.3 2.5-0.9 0.2-1.7 0.2-2.5-0.1-0.7-0.2-1.3-0.7-1.8-1.4-0.6-0.8-0.9-1.8-0.9-2.9 0.1-2 2.5-4.8 4.9-7.6 1.7-1.8 3.2-3.7 3.9-5l0.5-1.1 0.5 1.1zm0 7.4c0.2-1.9 0-3.9-0.6-5.8-0.8 1.3-2.1 2.7-3.4 4.2-2.2 2.6-4.6 5.3-4.6 6.8-0.1 0.9 0.2 1.6 0.6 2.2 0.4 0.5 0.8 0.8 1.3 1 0.5 0.2 1.1 0.2 1.8 0 0.8-0.2 1.7-0.9 2.7-2.1 1.2-1.5 2-3.8 2.2-6.3z"/><path fill-rule="evenodd" class="b" d="m127 185.2c-1.6 5.4-5.3 9.6-5.1 12.4 0.6 8.1 11 6.1 10.9 0.3 0-4.1-4.6-7.4-5.8-12.7z"/><path fill-rule="evenodd" class="d" d="m127 188.2c-0.7 1.6-1.5 3.1-2.3 4.7-0.6 1.1-1.9 3.3-1.8 4.7 0.5 6.7 9 4.8 8.9 0.3q0-0.3 0-0.6c-0.3-1.8-1.6-3.6-2.5-5.1-0.9-1.3-1.7-2.6-2.3-4z"/><path fill-rule="evenodd" class="c" d="m150.9 113.7l-8.3 3.9-0.1 5-46.8 73.7 2.1 1.8 46.9-74.2 4.6-2z"/><path class="e" d="m142.4 117l8.3-3.8 1-0.5-0.2 1.1-1.6 8.2-0.1 0.4-0.3 0.1-4.4 1.9-46.8 74-0.3 0.5-0.5-0.4-2.2-1.7-0.4-0.4 0.3-0.4 46.7-73.6 0.1-4.8v-0.4zm7.8-2.3l-6.9 3.2-0.2 4.7-0.1 0.3-46.5 73.2 1.3 1 46.5-73.6 0.3-0.2 4.3-1.8 1.3-6.8z"/><path fill-rule="evenodd" class="c" d="m146 202.6q3.5-4.2 6.9-8.4c1.4-1.8 1.5-1.6 3.8-1.5q1.4 0.1 2.8 0.2c1-1.1 1.2-1.7 0.6-2.8-1.6-0.6-3.2-1.5-4.6-2.3-2.2-1.1-2.8-2.3-4.2-4.4q-2.9-4.4-5.9-8.9c-9.6-15.6-18.7-32.2-28.3-47.8-3.3-5.4-7-10.9-10.4-15.1-2.6 7.1 3.1 12.9 7.2 19.4q16.7 27.8 33.5 55.6c1.4 2.3 1.1 3.5 0.3 6.1-0.8 3.1-2.3 5.8-4.1 8.3 0.3 1.1 1 1.7 2.5 1.6z"/><path class="e" d="m153.4 194.5l-6.9 8.5-0.1 0.2h-0.3q-1.3 0.1-2.1-0.5c-0.5-0.3-0.8-0.9-1-1.6v-0.2l0.1-0.2q1.4-1.9 2.4-3.9 1-2 1.7-4.2c0.3-1.3 0.6-2.2 0.6-3.1 0-0.8-0.3-1.5-0.9-2.6l-33.5-55.6q-1.2-1.8-2.4-3.6c-3.6-5.3-7.1-10.3-4.8-16.3l0.3-1 0.7 0.8c1.7 2.1 3.5 4.6 5.2 7.2 1.8 2.6 3.5 5.3 5.2 8 4.8 7.8 9.5 15.9 14.1 23.9 4.7 8 9.4 16.1 14.2 23.9l5.9 8.9c0.2 0.2 0.4 0.5 0.5 0.7 1 1.6 1.7 2.6 3.5 3.5l0.5 0.3c1.2 0.7 2.6 1.4 4 1.9l0.3 0.3c0.3 0.7 0.5 1.2 0.3 1.8-0.1 0.6-0.4 1.1-1 1.7l-0.2 0.2h-0.2l-2.9-0.2c-0.3 0-0.4 0-0.6 0-1.4-0.1-1.6-0.1-2.7 1.2zm-7.6 7.5l6.7-8.2c1.5-1.8 1.7-1.8 3.6-1.7q0.4 0 0.7 0l2.5 0.2q0.5-0.5 0.6-0.9 0-0.4-0.2-0.9c-1.4-0.5-2.7-1.2-3.9-1.9l-0.5-0.2c-2.1-1.1-2.8-2.2-3.9-3.9-0.2-0.2-0.3-0.4-0.5-0.7l-5.9-9h-0.1c-4.7-7.8-9.4-15.9-14.1-23.9-4.7-8.1-9.4-16.1-14.2-23.9-1.6-2.7-3.4-5.4-5.1-8-1.5-2.2-3-4.3-4.5-6.2-1.3 5.1 1.8 9.5 5 14.2 0.8 1.2 1.7 2.4 2.4 3.7l33.6 55.6c0.7 1.2 1 2.2 1 3.2 0 1-0.3 2-0.6 3.4q-0.7 2.3-1.8 4.4-1 2-2.3 3.8 0.2 0.5 0.5 0.7 0.3 0.2 1 0.2z"/><path fill-rule="evenodd" class="c" d="m141.7 177.2c1.3-0.8 2.4-1.9 3.7-2.7 1.4-1 3.1 1.3 1.5 2.3-1.2 0.9-2.2 1.9-3.4 2.8-1.2 0.5-2.8-1.3-1.8-2.4z"/><path class="e" d="m141.4 176.7q0.9-0.6 1.8-1.3c0.6-0.5 1.2-1 1.9-1.4 0.7-0.5 1.5-0.4 2.1 0q0.3 0.2 0.6 0.6 0.2 0.3 0.3 0.7c0.2 0.7 0 1.5-0.8 2-0.6 0.5-1.2 0.9-1.7 1.4q-0.9 0.7-1.8 1.4h-0.1c-0.5 0.3-1 0.2-1.5 0q-0.5-0.3-0.9-0.7-0.3-0.5-0.4-1.1c-0.1-0.5 0-1 0.4-1.5l0.1-0.1zm2.5-0.4c-0.5 0.5-1.1 0.9-1.8 1.3q-0.1 0.3-0.1 0.6 0.1 0.2 0.3 0.5 0.1 0.2 0.4 0.3 0.3 0.2 0.5 0.1c0.6-0.4 1.1-0.9 1.6-1.3 0.6-0.5 1.2-1 1.8-1.4 0.3-0.2 0.4-0.5 0.4-0.8q-0.1-0.2-0.2-0.3-0.1-0.2-0.3-0.3c-0.2-0.2-0.5-0.2-0.8 0-0.6 0.4-1.2 0.8-1.8 1.3z"/><path fill-rule="evenodd" class="c" d="m140.9 178c0.7 0.1 1.3 1.3 1.1 2 0 0.1-0.2 0.3-0.4 0.5-0.3 0.2-0.5 0.3-0.8 0.3-1.1 0-1.7-1.4-1.2-2.1 0.1-0.3 1-0.7 1.3-0.7z"/><path class="e" d="m141 177.4q0.1 0 0.1 0c0.5 0.2 0.9 0.6 1.2 1 0.3 0.5 0.4 1 0.3 1.5q0 0.1 0 0.2-0.1 0.3-0.3 0.5-0.2 0.2-0.4 0.4c-0.4 0.3-0.6 0.4-1.1 0.4q-0.6 0-1-0.3-0.5-0.3-0.7-0.8c-0.2-0.3-0.3-0.7-0.3-1.1q0-0.5 0.2-0.9c0.2-0.2 0.6-0.5 0.9-0.6 0.4-0.2 0.8-0.3 1.1-0.3zm-0.2 1.2c0 0-0.2 0-0.4 0.1-0.2 0.1-0.3 0.2-0.4 0.3q0 0.1 0 0.2 0 0.3 0.1 0.5 0.1 0.3 0.3 0.4 0.2 0.1 0.4 0.1c0.1 0 0.2 0 0.4-0.1v-0.1q0.1-0.1 0.2-0.2 0.1 0 0.1 0c0-0.2-0.1-0.5-0.2-0.8-0.2-0.2-0.3-0.4-0.5-0.4z"/><path fill-rule="evenodd" class="c" d="m143 179.8c1.3-0.9 2.4-1.9 3.7-2.7 1.4-1 3.1 1.3 1.5 2.3-1.2 0.9-2.2 1.9-3.4 2.8-1.2 0.5-2.8-1.3-1.8-2.5z"/><path class="e" d="m142.7 179.3q0.9-0.6 1.8-1.4c0.6-0.4 1.2-0.9 1.9-1.3 0.7-0.6 1.5-0.4 2.1 0q0.3 0.2 0.6 0.5 0.2 0.4 0.3 0.8c0.2 0.7 0 1.5-0.8 2-0.6 0.4-1.2 0.9-1.7 1.3q-0.9 0.8-1.8 1.4l-0.1 0.1c-0.5 0.3-1 0.2-1.5 0q-0.5-0.3-0.9-0.7-0.3-0.5-0.4-1.1c-0.1-0.5 0-1.1 0.4-1.5l0.1-0.2zm2.5-0.3c-0.6 0.4-1.1 0.9-1.8 1.3q-0.1 0.2-0.1 0.5 0.1 0.3 0.3 0.5 0.1 0.3 0.4 0.4 0.3 0.1 0.5 0.1c0.6-0.5 1.1-0.9 1.6-1.4 0.6-0.4 1.2-0.9 1.8-1.4 0.3-0.2 0.4-0.5 0.4-0.7q-0.1-0.2-0.2-0.4-0.1-0.1-0.3-0.3c-0.2-0.1-0.5-0.2-0.8 0-0.6 0.4-1.2 0.9-1.8 1.4z"/><path fill-rule="evenodd" class="c" d="m142.2 180.6c0.7 0.1 1.3 1.2 1.1 1.9 0 0.2-0.2 0.4-0.4 0.6-0.3 0.2-0.5 0.3-0.8 0.3-1.1 0-1.7-1.4-1.3-2.1 0.2-0.3 1.1-0.8 1.4-0.7z"/><path class="e" d="m142.3 180q0.1 0 0.1 0c0.5 0.1 0.9 0.5 1.2 1 0.3 0.5 0.4 1 0.3 1.5q0 0.1 0 0.2-0.1 0.3-0.3 0.5-0.2 0.2-0.4 0.4c-0.4 0.2-0.6 0.4-1.1 0.4q-0.6 0-1-0.3-0.5-0.3-0.7-0.8c-0.2-0.4-0.3-0.7-0.3-1.1q0-0.5 0.2-0.9c0.2-0.2 0.6-0.5 0.9-0.6 0.4-0.2 0.8-0.3 1.1-0.3zm-0.2 1.2c0 0-0.2 0-0.4 0.1-0.2 0.1-0.3 0.2-0.4 0.3q0 0.1 0 0.2 0 0.3 0.1 0.5 0.1 0.3 0.3 0.4 0.2 0.1 0.4 0.1c0.1 0 0.2 0 0.4-0.2q0.1-0.1 0.2-0.2 0.1 0 0.1 0v-0.1c0-0.2-0.1-0.4-0.2-0.7-0.2-0.2-0.3-0.4-0.5-0.4z"/><path fill-rule="evenodd" class="c" d="m144.8 182.1c1.3-0.8 2.4-1.9 3.7-2.7 1.4-1 3.1 1.3 1.6 2.3-1.3 1-2.2 1.9-3.5 2.8-1.2 0.6-2.7-1.3-1.8-2.4z"/><path class="e" d="m144.5 181.6q0.9-0.6 1.8-1.3c0.6-0.5 1.2-1 1.9-1.4 0.7-0.5 1.5-0.4 2.1 0q0.4 0.2 0.6 0.6 0.2 0.3 0.3 0.8c0.2 0.7 0 1.4-0.8 1.9-0.6 0.5-1.1 0.9-1.7 1.4q-0.8 0.7-1.8 1.4l-0.1 0.1c-0.5 0.2-1 0.1-1.5-0.1q-0.5-0.2-0.9-0.7-0.3-0.5-0.4-1c-0.1-0.6 0-1.1 0.4-1.6l0.1-0.1zm2.6-0.4c-0.6 0.5-1.2 0.9-1.9 1.3q-0.1 0.3-0.1 0.6 0.1 0.2 0.3 0.5 0.2 0.2 0.4 0.3 0.3 0.2 0.5 0.1c0.6-0.4 1.1-0.9 1.7-1.3 0.5-0.5 1.1-1 1.7-1.4h0.1c0.3-0.2 0.3-0.5 0.3-0.8q-0.1-0.2-0.2-0.3-0.1-0.2-0.3-0.3c-0.2-0.2-0.5-0.2-0.7 0h-0.1c-0.6 0.4-1.2 0.8-1.8 1.3z"/><path fill-rule="evenodd" class="c" d="m144 182.9c0.7 0.1 1.3 1.3 1.2 2-0.1 0.2-0.3 0.3-0.5 0.5-0.3 0.2-0.4 0.4-0.8 0.3-1.1 0-1.7-1.4-1.2-2.1 0.2-0.3 1-0.7 1.4-0.7z"/><path class="e" d="m144.1 182.3q0.1 0 0.2 0.1c0.4 0.1 0.8 0.5 1.1 1 0.3 0.4 0.4 1 0.4 1.4q-0.1 0.1-0.1 0.2-0.1 0.3-0.3 0.6-0.2 0.1-0.4 0.3c-0.3 0.3-0.6 0.4-1.1 0.4q-0.5 0-1-0.2c-0.3-0.3-0.6-0.6-0.7-0.9-0.2-0.3-0.3-0.7-0.3-1.1q0-0.4 0.3-0.8c0.1-0.3 0.5-0.5 0.8-0.7 0.4-0.2 0.8-0.3 1.1-0.3zm-0.1 1.2c-0.1 0-0.2 0.1-0.4 0.1-0.2 0.1-0.4 0.2-0.4 0.3q-0.1 0.1-0.1 0.3 0 0.2 0.1 0.5 0.2 0.2 0.4 0.4 0.1 0.1 0.3 0.1c0.2 0 0.2-0.1 0.4-0.2q0.2-0.1 0.3-0.2 0-0.1 0-0.1c0-0.2-0.1-0.5-0.2-0.7-0.1-0.3-0.3-0.5-0.4-0.5z"/><path fill-rule="evenodd" class="c" d="m146.4 184.8c1.2-0.8 2.4-1.9 3.6-2.7 1.4-1 3.1 1.3 1.6 2.4-1.3 0.9-2.2 1.8-3.5 2.7-1.2 0.6-2.7-1.2-1.7-2.4z"/><path class="e" d="m146 184.3q0.9-0.6 1.8-1.3c0.6-0.5 1.2-0.9 1.9-1.4 0.7-0.5 1.5-0.4 2.1 0q0.4 0.3 0.6 0.6 0.2 0.4 0.3 0.8c0.2 0.7 0 1.4-0.8 2-0.6 0.4-1.1 0.8-1.7 1.3q-0.8 0.7-1.7 1.4l-0.1 0.1c-0.5 0.2-1.1 0.2-1.6-0.1q-0.5-0.2-0.8-0.7-0.4-0.5-0.5-1c-0.1-0.5 0-1.1 0.4-1.6l0.1-0.1zm2.6-0.4c-0.6 0.5-1.2 0.9-1.8 1.3q-0.2 0.3-0.1 0.6 0 0.3 0.2 0.5 0.2 0.2 0.5 0.4 0.2 0.1 0.4 0c0.6-0.4 1.2-0.9 1.7-1.3 0.6-0.5 1.1-0.9 1.8-1.4 0.3-0.2 0.4-0.5 0.3-0.8q0-0.1-0.2-0.3-0.1-0.2-0.2-0.3c-0.3-0.1-0.6-0.2-0.8 0-0.6 0.4-1.2 0.9-1.8 1.3z"/><path fill-rule="evenodd" class="c" d="m145.6 185.6c0.6 0.1 1.3 1.3 1.1 2-0.1 0.2-0.3 0.4-0.5 0.5-0.3 0.3-0.4 0.4-0.8 0.4-1 0-1.7-1.4-1.2-2.2 0.2-0.3 1-0.7 1.4-0.7z"/><path class="e" d="m145.6 185q0.1 0.1 0.2 0.1c0.4 0.1 0.9 0.5 1.1 1 0.3 0.4 0.4 1 0.4 1.4q0 0.1-0.1 0.2 0 0.3-0.3 0.6-0.1 0.2-0.3 0.3h-0.1c-0.3 0.3-0.5 0.5-1.1 0.5q-0.5-0.1-1-0.3c-0.3-0.2-0.5-0.5-0.7-0.9-0.2-0.3-0.3-0.7-0.3-1.1q0-0.4 0.3-0.8c0.1-0.3 0.5-0.5 0.9-0.7 0.3-0.2 0.8-0.3 1-0.3zm-0.1 1.2c-0.1 0-0.2 0.1-0.4 0.2-0.2 0.1-0.4 0.2-0.4 0.2q-0.1 0.1-0.1 0.3 0 0.2 0.1 0.5 0.2 0.2 0.4 0.4 0.1 0.1 0.3 0.1c0.2 0 0.3-0.1 0.4-0.2q0.2-0.1 0.3-0.2 0-0.1 0-0.1c0-0.2 0-0.5-0.2-0.7-0.1-0.3-0.3-0.4-0.4-0.5z"/><path fill-rule="evenodd" class="b" d="m125.8 38.1l4.3 13.2h13.9l-11.2 8.1 4.3 13.2-11.3-8.2-11.2 8.2 4.3-13.2-11.2-8.1h13.9z"/><path fill-rule="evenodd" class="d" d="m125.8 40.3l-3.7 11.7h-12.4l10 7.2-3.8 11.6 9.9-7.2 10 7.2-3.8-11.6 10-7.2h-12.4z"/><path fill-rule="evenodd" class="f" d="m126.6 110.9v72.4l-15.2-16v-39.8z"/><path fill-rule="evenodd" class="d" d="m126.6 110.9v72.4l15.2-16v-39.8z"/><path class="b" d="m141.8 153.7l-0.6 0.4c-3 2.2-6.1 4.4-4.7 7.3q0.1 0.2 0.2 0.2c0.2 0.2 0.6 0.1 1.1-0.1 0.6-0.3 1.3-0.9 2-1.5 0.7-0.6 1.4-1.3 2-1.9v1.7q-0.6 0.6-1.2 1.1c-0.7 0.7-1.5 1.3-2.2 1.6-0.9 0.4-1.7 0.5-2.3 0.1q-0.4-0.2-0.7-0.7c-1.8-3.8 1.8-6.3 5.2-8.8q0.6-0.4 1.2-0.9v1.5zm-15.2 29.6l-0.3-0.4c-0.5-7.9-2.3-15.7-5.4-22.4-2.4-5.1-5.6-9.6-9.5-13.1v-1.5c4.4 3.6 7.9 8.5 10.5 14.1 2.6 5.6 4.4 11.9 5.1 18.4 0.2 1.3-0.4 2.6-0.3 4l-0.1 0.9zm-6.5-6.9l-1.2-1.2v-2.4c0-1.8-0.5-3.7-1.1-5.5-0.3-0.9-0.5-1.8-0.7-2.6-0.6-2.8-2.4-4.9-4.3-7q-0.7-0.8-1.4-1.6v-1.9c0.7 0.9 1.5 1.8 2.3 2.7 2 2.3 3.9 4.5 4.6 7.5 0.1 0.8 0.4 1.7 0.7 2.6 0.5 1.8 1.1 3.9 1.1 5.8zm-3.4-3.6l-1.1-1.1c0.1-1.9-0.4-3.5-1.2-5-0.8-1.4-1.8-2.6-3-3.6v-1.6c1.6 1.3 3 2.9 4 4.6 1.1 2 1.7 4.2 1.3 6.7zm-5.3-44.9v-0.4l0.6-0.7c1.2 1 2.3 2.4 3.1 4 1.9 3.6 2.9 8.4 2.9 11.7 0 2 0.8 3.6 1.5 5.2 0.4 1 0.9 2 1.2 3.1 0.5 1.8 3.1 3.2 5 4.2q0.5 0.3 0.9 0.6v1.3c-0.3-0.2-0.9-0.5-1.5-0.8-2.1-1.2-4.9-2.7-5.6-5.1-0.2-0.9-0.7-1.9-1.1-2.8-0.8-1.7-1.6-3.5-1.6-5.7 0-3.1-0.9-7.7-2.8-11.2-0.7-1.4-1.6-2.6-2.6-3.5zm16.5 28.7c0.5-1.1 1.2-2 2-3.1 0.7-0.9 1.4-1.8 2.2-3.1 1.8-3.1 2.1-6.9 2.3-10.6 0.4-5.4 0.8-10.7 5.7-14.1l0.8 0.9c-4.6 3.1-4.9 8.1-5.3 13.2-0.2 3.9-0.5 7.8-2.5 11.2-0.8 1.3-1.5 2.3-2.3 3.3-1.7 2.2-3 3.9-3 8.3 0 3.9 1.8 6.7 4.4 8.6 1.2 0.9 2.5 1.6 4 2.1l-0.9 0.9q-2.1-0.8-3.8-2c-2.9-2.2-4.9-5.3-4.9-9.6 0-2.4 0.4-4.1 1-5.5l0.3-0.5zm-11.5-34.5l0.8-0.9c2 1.8 2.6 5.6 3.2 9.5 0.8 5.1 1.7 10.5 5.8 10.5 5.6 0 5.7-5.4 5.8-10.5 0.1-4.6 0.1-8.9 3.7-9.8l0.9 1c-3.3 0.4-3.4 4.5-3.5 8.8-0.1 5.7-0.2 11.7-6.9 11.7-5.1 0-6.1-5.9-6.9-11.5-0.6-3.7-1.2-7.3-2.9-8.8zm25.4 12.5v1.6c-2.4 2.2-2.9 5.8-3.5 9.4-0.4 2.4-0.8 4.8-1.7 7q-0.5 1.3-1 2.5c-1.2 3.1-2.3 5.7-2.3 7.7 0 2.6 2.1 4.1 8.5 4.6l-1.1 1.1c-6.5-0.7-8.6-2.6-8.6-5.7 0-2.2 1.1-4.9 2.4-8.2q0.5-1.2 1-2.4c0.8-2.1 1.2-4.5 1.6-6.8 0.7-4.3 1.4-8.4 4.7-10.9zm-17.8-9.8c0.4-1.1 1.1-2.1 2.1-3l0.3-0.3 0.3 0.1q0.3 0.2 0.6 0.4c1 0.8 1.9 2.6 2.4 4.6 0.5 2 0.6 4.2 0 5.8q-0.2 0.6-0.6 1.1-0.2 0.2-0.5 0.5c-0.4 0.3-0.8 0.5-1.3 0.5-0.5 0.1-1 0-1.4-0.4q-0.2-0.1-0.4-0.4c-0.7-0.8-1.2-1.5-1.5-2.3-0.3-0.8-0.5-1.7-0.5-2.8 0-1.5 0.2-2.7 0.5-3.8zm2.6-1.9c-0.7 0.8-1.2 1.5-1.5 2.3-0.3 1-0.4 2.1-0.4 3.4 0 1 0.1 1.7 0.4 2.3 0.3 0.7 0.7 1.4 1.3 2.1q0.1 0.1 0.2 0.2 0.3 0.2 0.6 0.2 0.3-0.1 0.6-0.4 0.2-0.1 0.4-0.3 0.2-0.3 0.4-0.7c0.5-1.4 0.4-3.3-0.1-5.1-0.4-1.8-1.1-3.3-1.9-4z"/><path class="b" d="m142.2 167.7l-15.2 16-0.4 0.4-0.4-0.4-15.2-16-0.2-0.4v-39.8l0.2-0.4 15.2-16.6 0.4-0.5 0.4 0.5 15.2 16.6 0.2 0.4v39.8l-0.2 0.4zm-16.2 14.1v-69.4l-14 15.3v39.4zm1.2 0l14-14.8v-39.3l-14-15.4z"/><path fill-rule="evenodd" class="d" d="m43.1 115.3c6.7 0.4 13.2 0.3 18.7 0.5-2.8 6.8-4.2 13.5-5 20.3 11-8 22-15.6 33.6-19.4-5.4-7.1-10.5-13.9-15.5-20.6-11.5 4.3-22.5 11-31.8 19.2z"/><path class="e" d="m55.5 116.3c-3.9-0.1-8.1-0.1-12.4-0.4l-0.4-1c4.7-4.2 9.9-8 15.3-11.3 5.3-3.2 10.9-5.9 16.6-8.1l0.5-0.1 0.2 0.3c2.6 3.5 5.2 6.9 7.7 10.2q3.8 5.2 7.9 10.5l0.5 0.6-0.8 0.3c-5.7 1.9-11.4 4.7-16.9 8.1-5.6 3.3-11.1 7.2-16.5 11.2l-1.1 0.8 0.1-1.4c0.8-6.5 2.1-13.1 4.8-19.6q-2.6-0.1-5.5-0.1zm-10.9-1.5c3.8 0.2 7.5 0.2 11 0.3 2.2 0 4.3 0 6.3 0.1h0.8l-0.3 0.8c-2.7 6.3-4.1 12.6-4.9 18.8 5.2-3.7 10.4-7.3 15.6-10.4 5.4-3.3 10.8-6 16.3-7.9-2.5-3.4-5-6.7-7.4-9.9-2.6-3.4-5-6.6-7.4-9.8-5.4 2.1-10.8 4.8-16 7.9-4.9 3-9.6 6.4-14 10.1z"/><path fill-rule="evenodd" class="d" d="m210.6 115.3c-6.7 0.4-13.2 0.3-18.7 0.5 2.8 6.8 4.2 13.5 5 20.3-11-8-22-15.6-33.6-19.4 5.5-7.1 10.5-13.9 15.6-20.6 11.4 4.3 22.4 11 31.7 19.2z"/><path class="e" d="m210.6 115.9c-4.3 0.3-8.5 0.3-12.4 0.3q-2.8 0.1-5.4 0.1c2.6 6.6 4 13.2 4.7 19.7l0.2 1.4-1.1-0.8c-5.5-4-11-7.9-16.6-11.2-5.5-3.4-11.1-6.2-16.9-8.1l-0.8-0.3 0.5-0.6q4.1-5.3 8-10.5c2.4-3.3 5-6.7 7.6-10.2l0.3-0.3 0.4 0.1c5.7 2.1 11.3 4.9 16.6 8.1 5.4 3.3 10.6 7.1 15.3 11.3l-0.3 1zm-12.5-0.8c3.5-0.1 7.1-0.1 10.9-0.3-4.3-3.8-9.1-7.2-14-10.2-5.1-3.1-10.5-5.7-16-7.8-2.4 3.2-4.8 6.4-7.4 9.8-2.4 3.2-4.8 6.4-7.4 9.8 5.5 1.9 11 4.7 16.3 7.9 5.3 3.2 10.4 6.8 15.6 10.5-0.8-6.3-2.2-12.5-4.9-18.8l-0.3-0.8h0.9c1.9-0.1 4.1-0.1 6.3-0.2z"/><path fill-rule="evenodd" class="d" d="m70.5 91.9c39.1-19.1 76-17.2 111.3-0.7-0.5 1.2 0.8 4.3 0.4 5.5-0.3 0.8-2.3-0.2-2.6 0.6q-3.2 8.9-6.4 17.8c-31.3-13.1-63.3-12.1-95.8-3.1q-3.5-10-6.9-20.1z"/><path class="e" d="m70.3 91.7c19.6-9.6 38.7-13.9 57.3-13.8 18.5 0.2 36.6 4.8 54.3 13l0.3 0.1-0.1 0.3c-0.2 0.5 0 1.5 0.2 2.6 0.2 1.1 0.4 2.2 0.2 2.9-0.3 0.6-0.9 0.6-1.6 0.5-0.5 0-1-0.1-1.1 0.1l-6.4 17.8-0.1 0.3-0.3-0.1c-15.5-6.6-31.3-9.6-47.3-9.8-15.9-0.3-32 2.2-48.2 6.7l-0.3 0.1-0.1-0.3-6.9-20.1 0.2-0.1-0.1-0.2zm57.2-13.2c-18.4-0.2-37.2 4.1-56.7 13.6l6.8 19.6c16.2-4.5 32.2-7 48.2-6.7 15.9 0.2 31.6 3.2 47.2 9.7l6.3-17.5c0.2-0.6 0.9-0.5 1.6-0.5 0.5 0 0.9 0.1 1-0.1 0.2-0.6 0-1.6-0.2-2.6-0.2-1-0.4-2-0.3-2.7-17.5-8.1-35.5-12.7-53.9-12.8z"/><path fill-rule="evenodd" class="d" d="m68.6 90.3c4 4.4 7.3 2.8 12.2-1.5-3.9-4.6-7.1-1.3-12.2 1.5z"/><path class="e" d="m74.5 93.4c-2.2 0.4-4.1-0.3-6.3-2.7l-0.5-0.6 0.6-0.3q1.3-0.7 2.4-1.4c4-2.4 6.9-4.2 10.5 0.1l0.4 0.4-0.5 0.4c-2.5 2.2-4.6 3.7-6.6 4.1zm-4.9-3c1.6 1.7 3.1 2.2 4.7 1.9 1.6-0.4 3.4-1.6 5.6-3.5-2.7-2.9-5.3-1.4-8.6 0.6q-0.8 0.5-1.7 1z"/><path fill-rule="evenodd" class="d" d="m77.7 86.1c1.8 2 3.5 3.3 5.4 3.1 2.6-0.4 4.9-1.1 7.7-3.5-3.9-4.6-8.1-2.3-13.1 0.4z"/><path class="e" d="m80.1 89c-1-0.6-1.9-1.5-2.8-2.5l-0.5-0.5 0.6-0.4c2.6-1.4 4.9-2.7 7.2-3 2.3-0.4 4.5 0.2 6.6 2.7l0.4 0.4-0.4 0.4c-1.5 1.3-2.8 2.1-4.1 2.6-1.3 0.6-2.6 0.9-3.9 1-1.1 0.2-2.1-0.1-3.1-0.7zm-1.4-2.7c0.6 0.7 1.3 1.2 2 1.7 0.8 0.4 1.5 0.7 2.3 0.6 1.3-0.2 2.5-0.4 3.7-0.9 1-0.5 2.1-1.1 3.2-2.1-1.6-1.7-3.3-2.2-5.1-1.9-1.9 0.3-4 1.4-6.2 2.6z"/><path fill-rule="evenodd" class="d" d="m86.2 83.1c1.6 1.8 3.4 3.2 5.3 3.1 2.6-0.2 5.1-0.7 7.9-2.8-3.9-4.9-8.2-3.1-13.2-0.3z"/><path class="e" d="m88.4 85.8c-0.9-0.5-1.8-1.4-2.7-2.3l-0.5-0.6 0.7-0.4c2.5-1.4 5-2.5 7.3-2.7 2.4-0.2 4.6 0.6 6.7 3.3l0.3 0.4-0.4 0.4c-1.5 1.1-2.9 1.7-4.2 2.2-1.4 0.4-2.7 0.6-4.1 0.7-1.1 0-2.1-0.3-3.1-1zm-1.3-2.6q1 1 2 1.6c0.8 0.5 1.6 0.8 2.3 0.8 1.3-0.1 2.6-0.3 3.8-0.7 1.1-0.3 2.2-0.8 3.4-1.6-1.7-1.9-3.5-2.5-5.3-2.4-1.9 0.2-4 1.1-6.2 2.3z"/><path fill-rule="evenodd" class="d" d="m95.3 80c1.3 1.5 2.6 3.1 4.2 3.3 3 0.4 6.6-0.1 8.9-1.8-2.9-5.4-8.1-4.2-13.1-1.5z"/><path class="e" d="m95.2 80.8l-0.4-0.4-0.5-0.6 0.7-0.3c2.5-1.4 5.2-2.5 7.6-2.4 2.5 0 4.8 1.2 6.3 4.1l0.2 0.5-0.4 0.3c-1.1 0.8-2.6 1.4-4.2 1.7-1.6 0.3-3.5 0.4-5.1 0.2-1.7-0.2-2.9-1.6-4.3-3.1zm1.1-0.6c1.1 1.2 2.2 2.4 3.3 2.5 1.6 0.2 3.2 0.2 4.8-0.2 1.2-0.2 2.3-0.6 3.3-1.2-1.3-2.1-3.1-3-5-3-2-0.1-4.2 0.7-6.4 1.9z"/><path fill-rule="evenodd" class="d" d="m68.3 91c9.5 4.1 7 9.2 8 13.3-2.5-4.7-8-0.4-8-13.3z"/><path class="e" d="m68.5 90.5c7.7 3.3 7.9 7.3 8.1 10.9 0 0.9 0.1 1.9 0.3 2.8l-1.1 0.4c-0.8-1.4-1.9-2-3.1-2.5-2.5-1.1-5-2.2-5-11.1v-0.9l0.8 0.4zm6.9 10.9c-0.1-3.1-0.3-6.5-6.5-9.5 0.1 7.3 2.2 8.2 4.3 9.2 0.8 0.3 1.6 0.6 2.3 1.2q-0.1-0.4-0.1-0.9z"/><path fill-rule="evenodd" class="d" d="m104.9 78.1c2.1 3 2.2 4.1 4.5 4.1 3.9-0.1 6.2-0.3 8.3-2-1.4-2.8-2.8-4-5.2-4.1-2.1-0.1-5.2 0.7-7.6 2z"/><path class="e" d="m105.5 80q-0.5-0.7-1.1-1.6l-0.3-0.5 0.5-0.3c1.3-0.7 2.6-1.2 4-1.6 1.4-0.3 2.8-0.5 3.9-0.4 1.3 0 2.4 0.4 3.3 1.1 0.9 0.7 1.7 1.8 2.5 3.3l0.2 0.4-0.4 0.3c-1.1 0.9-2.3 1.4-3.7 1.7-1.4 0.2-3 0.3-5 0.4-2.2 0-2.6-0.8-3.9-2.8zm0.3-1.7q0.4 0.6 0.7 1.1c1 1.6 1.4 2.2 2.9 2.2 1.9 0 3.5-0.1 4.7-0.4 1.1-0.2 2-0.6 2.9-1.1-0.6-1.2-1.2-2-1.9-2.5-0.7-0.6-1.6-0.8-2.6-0.9-1 0-2.3 0.1-3.6 0.5-1 0.2-2.1 0.6-3.1 1.1z"/><path fill-rule="evenodd" class="d" d="m115 77.1c1.2 2.8 2.3 4 4.8 4.2 2.1 0.1 5.6 0.3 7.2-0.9-1-2.1-2.3-3.6-4-4.1-3-0.9-6.8-0.2-8 0.8z"/><path class="e" d="m116.5 80.6c-0.8-0.7-1.4-1.8-2-3.3l-0.2-0.4 0.4-0.3c0.7-0.5 2.2-1 3.9-1.2 1.4-0.1 3.1-0.1 4.5 0.3 1 0.3 1.9 0.9 2.6 1.6 0.7 0.8 1.3 1.7 1.8 2.8l0.3 0.4-0.4 0.3c-0.9 0.8-2.4 1.1-3.8 1.2-1.4 0.1-2.8 0-3.8-0.1-1.4-0.1-2.4-0.5-3.3-1.3zm-0.7-3.3c0.5 1.1 0.9 1.9 1.5 2.5 0.6 0.5 1.4 0.8 2.5 0.9 1.1 0.1 2.4 0.2 3.7 0.1 1.1-0.1 2-0.3 2.8-0.6q-0.7-1.2-1.5-2.1c-0.6-0.6-1.2-1-2-1.3-1.3-0.3-2.7-0.4-4.1-0.2-1.2 0.1-2.3 0.4-2.9 0.7z"/><path fill-rule="evenodd" class="d" d="m124.1 76.8c1.1 2.8 1.8 4.2 4.3 4.4 2.1 0.2 5.6 0.4 7.3-0.9-1.1-2.1-2.3-3.6-4.1-4.1-3-0.8-6.4-0.4-7.5 0.5z"/><path class="e" d="m125.3 80.3c-0.7-0.7-1.2-1.9-1.8-3.3l-0.1-0.4 0.3-0.3c0.7-0.6 2-1 3.6-1.1 1.4-0.1 3 0 4.5 0.4 1 0.3 1.8 0.9 2.5 1.7 0.7 0.7 1.3 1.7 1.9 2.7l0.2 0.5-0.4 0.3c-0.9 0.7-2.3 1-3.8 1.1-1.3 0.1-2.8 0-3.8-0.1-1.4-0.1-2.4-0.6-3.1-1.4zm-0.5-3.4c0.5 1.1 0.9 2 1.4 2.6 0.5 0.6 1.2 0.9 2.3 1 1 0.1 2.4 0.2 3.7 0.1 1-0.1 2-0.2 2.7-0.6q-0.7-1.2-1.4-2c-0.6-0.7-1.3-1.1-2.1-1.3-1.3-0.4-2.7-0.5-4-0.4-1.1 0.1-2 0.3-2.6 0.6z"/><path fill-rule="evenodd" class="d" d="m133.1 76.8c0.9 2.9 2.1 4.7 4.6 5.1 2 0.3 5.4 0.4 7.2-0.2-0.9-2.1-2-3.8-3.7-4.4-2.9-1.1-6.9-1.4-8.1-0.5z"/><path class="e" d="m134.3 80.7c-0.8-1-1.3-2.2-1.8-3.8l-0.1-0.4 0.3-0.2c0.7-0.5 2.1-0.7 3.7-0.6 1.6 0.1 3.4 0.5 5 1 0.9 0.4 1.7 1 2.4 1.9 0.6 0.8 1.1 1.7 1.6 2.9l0.3 0.6-0.6 0.1c-0.9 0.3-2.1 0.5-3.4 0.5-1.4 0-3-0.1-4.1-0.2-1.4-0.3-2.5-0.9-3.3-1.8zm-0.5-3.6c0.4 1.1 0.8 2.1 1.4 2.8 0.7 0.7 1.5 1.2 2.5 1.4 1.1 0.2 2.6 0.3 4 0.2 0.9 0 1.7-0.1 2.4-0.2-0.4-0.8-0.8-1.4-1.2-2-0.5-0.7-1.2-1.2-1.9-1.5-1.4-0.5-3.1-0.8-4.6-0.9-1.1-0.1-2 0-2.6 0.2z"/><path fill-rule="evenodd" class="d" d="m141.9 77.8c0.6 1.9 1 2.9 2.8 4 2.4 1.5 6.4 2.7 9.1 1.8-0.6-1.4-1.1-3.6-2.6-4.8-2.5-1.8-6.3-2.3-9.3-1z"/><path class="e" d="m142.4 80.4c-0.5-0.7-0.8-1.4-1.1-2.4l-0.1-0.5 0.5-0.2c1.5-0.7 3.3-1 5-0.8 1.8 0.2 3.5 0.9 4.9 1.9 1.3 0.9 1.9 2.6 2.4 3.9 0.1 0.4 0.3 0.8 0.4 1.1l0.2 0.5-0.6 0.3c-1.3 0.4-3 0.4-4.6 0-1.8-0.3-3.7-1.1-5-2-1-0.5-1.6-1.1-2-1.8zm0.2-2.3c0.3 0.7 0.5 1.2 0.8 1.7 0.3 0.5 0.8 1 1.6 1.5 1.2 0.7 2.9 1.4 4.7 1.8 1.1 0.2 2.3 0.3 3.3 0.1l-0.1-0.5c-0.5-1.2-1-2.6-2-3.4-1.2-0.9-2.8-1.4-4.3-1.6-1.4-0.1-2.7 0-4 0.4z"/><path fill-rule="evenodd" class="d" d="m151.2 78.8c0.6 2 0.9 3.7 2.6 4.8 2.4 1.5 5.9 2.8 8.7 1.9-0.7-1.4-1.1-3.6-2.7-4.7-2.5-1.8-5.4-2.4-8.6-2z"/><path class="e" d="m150.9 79.8c-0.1-0.3-0.2-0.6-0.2-0.8l-0.2-0.6 0.6-0.1q2.5-0.4 4.9 0.1 2.2 0.5 4.2 1.9c1.3 1 1.9 2.6 2.4 4 0.2 0.4 0.3 0.7 0.4 1l0.3 0.6-0.7 0.2c-1.3 0.4-2.8 0.4-4.2 0.1-1.8-0.4-3.5-1.2-4.9-2.1-1.7-1.1-2.1-2.6-2.6-4.3zm1.1-0.5v0.2c0.5 1.5 0.9 2.8 2.2 3.6 1.2 0.8 2.8 1.6 4.5 1.9 1 0.2 2 0.3 3 0.1q-0.1-0.2-0.2-0.4c-0.4-1.2-0.9-2.7-2-3.4q-1.8-1.3-3.8-1.8-1.8-0.4-3.7-0.2z"/><path fill-rule="evenodd" class="d" d="m160 81.2c0.6 1.9 0.9 3.7 2.6 4.8 2.4 1.5 5.9 3.6 8.7 2.7-0.7-1.5-1.4-3.8-2.9-4.9-2.5-1.8-5.3-2.9-8.4-2.6z"/><path class="e" d="m159.7 82.2c-0.1-0.3-0.2-0.6-0.2-0.8l-0.2-0.7 0.7-0.1q2.3-0.2 4.4 0.5c1.5 0.5 3 1.3 4.4 2.2 1.4 1.1 2.1 2.9 2.7 4.4 0.1 0.3 0.3 0.6 0.3 0.7l0.3 0.6-0.6 0.2c-1.6 0.5-3.2 0.2-4.9-0.4-1.5-0.7-3-1.6-4.3-2.3-1.7-1.1-2.1-2.6-2.6-4.3zm1.1-0.5v0.1c0.5 1.5 0.9 2.8 2.2 3.7 1.1 0.7 2.6 1.6 4.1 2.2 1.1 0.4 2.3 0.7 3.4 0.5l-0.1-0.1c-0.5-1.3-1.2-3-2.3-3.8-1.3-0.9-2.6-1.6-4-2.1q-1.6-0.5-3.3-0.5z"/><path fill-rule="evenodd" class="d" d="m168.9 83.9c0.6 1.9 1.6 3.6 3.3 5.2 2 2 8.1 5.6 11 6.4 0.1-2-2.4-6.8-4.1-8-2.5-1.7-7.1-3.9-10.2-3.6z"/><path class="e" d="m169.6 86.9q-0.8-1.3-1.3-2.8l-0.2-0.7 0.7-0.1c1.5-0.1 3.2 0.2 4.9 0.8 2.1 0.8 4.3 1.9 5.7 2.9 0.9 0.6 2.1 2.2 2.9 3.9 0.9 1.7 1.5 3.5 1.5 4.6l-0.1 0.8-0.7-0.2c-1.4-0.4-3.7-1.5-5.8-2.8-2.2-1.3-4.4-2.7-5.4-3.8q-1.3-1.2-2.2-2.6zm0.1-2.4q0.4 0.9 0.9 1.8 0.8 1.2 2 2.4c1 1 3 2.4 5.2 3.6 1.6 1 3.4 1.9 4.7 2.4-0.2-1-0.7-2.1-1.3-3.3-0.7-1.5-1.7-2.9-2.5-3.4-1.3-1-3.4-2-5.4-2.8-1.2-0.4-2.5-0.7-3.6-0.7z"/><path fill-rule="evenodd" class="d" d="m166.6 112.2c3.4-2.4 6.5-4.3 9.5-6.1-0.8 3.4-1.2 5.5-1.9 8.9-0.6-0.4-1.5 0.6-2.1 0.2q-2.7-1.5-5.5-3z"/><path class="e" d="m166.3 111.7q2.4-1.7 4.9-3.3 2.4-1.5 4.5-2.8l1.2-0.6-0.3 1.2-1.8 8.9-0.9 0.4c0 0-0.2 0.3-0.5 0.4-0.5 0.2-1 0.1-1.6-0.2l-5.5-3 0.3-0.5-0.3-0.5zm5.5-2.3q-2 1.3-4.1 2.7l4.7 2.6c0.1 0.1 0.3 0 0.5-0.1 0.3-0.1 0.6-0.2 0.8-0.3l1.5-7q-1.7 1-3.4 2.1z"/><path fill-rule="evenodd" class="d" d="m178.3 102.2c-3.7 0.8-4.8 4.1-5.6 7.5-0.3 1.8 0.7 3.9 1.1 5.4 2.7-0.8 4.8-3.9 5.3-8.5 0.2-1.5 0-2.9-0.8-4.4z"/><path class="e" d="m173.9 104.7c0.9-1.5 2.3-2.6 4.3-3l0.4-0.1 0.2 0.4q0.7 1.2 0.9 2.3 0.2 1.2 0 2.4c-0.3 2.3-1 4.3-1.9 5.8-1 1.6-2.3 2.7-3.8 3.2l-0.6 0.2-0.2-0.6q-0.1-0.5-0.3-1.1c-0.5-1.5-1.1-3.1-0.7-4.6 0.3-1.8 0.8-3.5 1.7-4.9zm4.1-1.8c-1.4 0.4-2.4 1.3-3.1 2.4-0.8 1.3-1.2 2.9-1.6 4.5-0.2 1.2 0.3 2.7 0.7 4q0.1 0.3 0.2 0.5c1-0.4 1.9-1.3 2.6-2.5 0.8-1.3 1.5-3.1 1.7-5.3q0.2-1 0-2-0.2-0.8-0.5-1.6z"/><path fill-rule="evenodd" class="d" d="m183.1 94.8c-3.7 0.8-4.8 4.1-5.5 7.5-0.4 1.8 0.6 3.9 1 5.4 2.7-0.8 4.8-4 5.3-8.5 0.2-1.5 0-2.9-0.8-4.4z"/><path class="e" d="m178.7 97.2c0.9-1.4 2.3-2.5 4.3-3l0.4-0.1 0.3 0.4q0.6 1.2 0.8 2.4 0.2 1.1 0 2.3c-0.3 2.3-0.9 4.3-1.9 5.8-1 1.7-2.3 2.8-3.8 3.3l-0.6 0.2-0.1-0.6q-0.2-0.5-0.4-1.2c-0.5-1.4-1-3-0.7-4.5 0.3-1.8 0.8-3.5 1.7-5zm4.1-1.7c-1.4 0.4-2.4 1.3-3.1 2.4-0.8 1.2-1.2 2.8-1.6 4.5-0.2 1.2 0.3 2.7 0.7 4q0.1 0.2 0.2 0.5c1-0.5 1.9-1.3 2.6-2.5 0.8-1.4 1.5-3.2 1.7-5.3q0.2-1 0-2-0.2-0.8-0.5-1.6z"/><path fill-rule="evenodd" class="d" d="m70.4 99.5c9.5 4 6.8 9.1 7.8 13.2-0.5-0.8-1.1-0.6-1.7-1.1-2.7-2.1-6.1-1.6-6.1-12.1z"/><path class="e" d="m70.6 99c7.7 3.2 7.8 7.1 7.9 10.7 0 1 0.1 2 0.3 2.9l-1.1 0.4c-0.2-0.3-0.5-0.4-0.7-0.5-0.3-0.1-0.6-0.2-0.9-0.4-0.4-0.4-0.9-0.7-1.5-0.9-2.4-1.4-4.8-2.8-4.8-11.7v-0.9zm6.7 10.8c-0.1-3.1-0.2-6.5-6.3-9.3 0.1 7.4 2.2 8.5 4.2 9.7 0.6 0.3 1.1 0.6 1.6 1 0.2 0.1 0.4 0.2 0.5 0.2h0.1q-0.1-0.8-0.1-1.6z"/><path fill-rule="evenodd" class="d" d="m75.2 111c4.5-2.4 9.2-2.9 11.9-1.8 2.1 0.7 1.9 1.5 3 3.2-2 1.6-7.5 5.1-14.9-1.4z"/><path class="e" d="m74.9 110.5c2.3-1.2 4.6-1.9 6.7-2.3 2.2-0.3 4.2-0.2 5.7 0.4 1.8 0.7 2.1 1.3 2.7 2.3q0.2 0.5 0.6 1.1l0.3 0.5-0.4 0.3c-1.1 0.9-3.1 2.2-5.8 2.5-2.7 0.3-6.1-0.5-9.9-3.8l-0.6-0.6 0.7-0.4zm6.8-1.1c-1.7 0.3-3.6 0.8-5.4 1.7 3.2 2.7 6 3.3 8.3 3.1 2.1-0.3 3.7-1.2 4.7-2q-0.2-0.4-0.4-0.7c-0.4-0.8-0.7-1.3-2-1.8-1.3-0.5-3.1-0.6-5.2-0.3z"/><path fill-rule="evenodd" class="d" d="m85.5 108.7c4.5-2.5 7.1-3 10.1-3 2.2 0 2 2.7 4.7 4.4-2.3 1.7-3.9 1.5-8.9 1.9-1.9 0.2-4.7-1.6-5.9-3.3z"/><path class="e" d="m85.2 108.2c2.3-1.3 4.1-2 5.7-2.5 1.7-0.5 3.2-0.6 4.7-0.6 1.5 0 2.1 0.9 2.8 2 0.5 0.8 1 1.8 2.2 2.5l0.7 0.4-0.6 0.5c-2.1 1.6-3.5 1.7-6.8 1.9-0.8 0.1-1.6 0.1-2.5 0.2-1 0.1-2.2-0.3-3.3-0.9-1.2-0.7-2.4-1.7-3.1-2.6l-0.4-0.5 0.6-0.4zm6.1-1.4c-1.4 0.4-3 1.1-4.9 2.1 0.6 0.7 1.4 1.3 2.3 1.8 0.9 0.5 1.9 0.8 2.6 0.7 1.1-0.1 1.9-0.1 2.5-0.2 2.7-0.2 4-0.3 5.5-1.1-1-0.8-1.5-1.6-1.9-2.4-0.5-0.8-0.9-1.4-1.8-1.4-1.4 0-2.8 0.1-4.3 0.5z"/><path fill-rule="evenodd" class="d" d="m96.4 105.9c4.5-2.3 6.1-2.3 8.7-2.3 2.2 0.1 2.9 2.7 4.7 4.4-2.4 1.8-3.9 1.5-8.9 2-1.9 0.1-3.8-2.4-4.5-4.1z"/><path class="e" d="m96.2 105.3c2.3-1.1 3.8-1.7 5.2-2 1.3-0.3 2.4-0.3 3.7-0.2 1.7 0 2.6 1.2 3.6 2.6 0.4 0.7 0.9 1.3 1.5 1.9l0.5 0.5-0.6 0.4c-2 1.5-3.4 1.6-6.7 1.9-0.8 0-1.6 0.1-2.5 0.1-1 0.1-2-0.4-2.8-1.2-1-0.9-1.8-2.2-2.2-3.2l-0.2-0.5 0.5-0.3zm5.4-0.9c-1.1 0.3-2.5 0.8-4.4 1.7 0.4 0.8 1 1.7 1.7 2.4 0.6 0.6 1.3 0.9 1.9 0.9 1.1-0.1 1.8-0.2 2.5-0.2 2.7-0.2 4.1-0.3 5.6-1.3q-0.7-0.7-1.2-1.5c-0.8-1.1-1.5-2.1-2.6-2.2-1.3 0-2.3 0-3.5 0.2z"/><path fill-rule="evenodd" class="d" d="m104.4 103.5c4.5-1 8.4-0.9 10.5-0.5 2.2 0.3 2.5 2.5 4 4.4-2.3 1.7-4.5 1-9.1 0.6-1.9-0.1-2.5-3.2-5.4-4.5z"/><path class="e" d="m104.3 102.9c2-0.5 3.9-0.7 5.6-0.8 2.1-0.1 3.9 0.1 5.2 0.3 1.6 0.3 2.3 1.5 3.1 2.8 0.3 0.6 0.7 1.2 1.2 1.8l0.4 0.4-0.5 0.4c-2.1 1.6-3.9 1.4-7 1-0.7-0.1-1.6-0.1-2.6-0.2-1.2-0.1-1.9-1-2.7-2-0.7-0.9-1.5-2-2.8-2.6l0.1-1.1zm5.7 0.4q-1.9 0.1-4 0.5c0.8 0.6 1.4 1.4 1.9 2 0.7 0.9 1.2 1.6 1.9 1.6q1.4 0.1 2.7 0.3c2.5 0.2 4.1 0.4 5.6-0.5-0.4-0.5-0.7-1-0.9-1.4-0.7-1.1-1.2-2-2.3-2.3-1.2-0.2-2.9-0.3-4.9-0.2z"/><path fill-rule="evenodd" class="d" d="m158.2 107.5c9.8-0.2 12.9 4.8 14.9 8.8-7.7 2.2-10.6-6.8-14.9-8.8z"/><path class="b" d="m158.2 106.9c5-0.1 8.4 1.2 10.7 3 2.4 1.8 3.1 3.3 4.2 5.4l0.3 0.6-0.7 0.2c-5.4 1.5-7.9-1.3-10.8-4.5-1.3-1.5-2.6-3-3.9-3.6l0.2-1.1zm10 3.9c-1.8-1.4-4.3-2.5-8-2.7 0.9 0.8 1.8 1.8 2.6 2.8 2.5 2.7 4.6 5.1 8.9 4.2-0.9-1.7-1.6-2.8-3.5-4.3z"/><path fill-rule="evenodd" class="d" d="m148.9 104.5c9.8-0.2 12.8 4.8 14.9 8.7-7.7 2.2-10.6-6.7-14.9-8.7z"/><path class="b" d="m148.9 103.9c5-0.1 8.4 1.1 10.7 2.9 2.3 1.8 3.7 4.1 4.7 6.2l0.4 0.6-0.7 0.2c-5.5 1.6-8.6-2-11.4-5.2-1.3-1.5-2.6-3-4-3.6l0.3-1.1zm10 3.9c-1.9-1.4-4.4-2.5-8-2.7 0.9 0.8 1.7 1.7 2.6 2.7 2.4 2.8 5.1 5.9 9.4 5-0.9-1.7-2.1-3.6-4-5z"/><path fill-rule="evenodd" class="d" d="m140.1 103.2c9.5-0.8 12.7 3.9 14.9 7.6-7.3 2.5-10.6-5.9-14.9-7.6z"/><path class="b" d="m140.1 102.6c4.9-0.4 8.2 0.6 10.5 2.2 2.4 1.6 3.8 3.8 4.9 5.7l0.4 0.6-0.7 0.2c-5.1 1.8-8.3-1.4-11.2-4.3-1.4-1.4-2.7-2.7-4.1-3.3zm9.9 3.2c-1.9-1.2-4.3-2.1-7.8-2.1 0.9 0.7 1.8 1.6 2.6 2.5 2.5 2.5 5.3 5.3 9.3 4.3-1-1.6-2.2-3.4-4.1-4.7z"/><path fill-rule="evenodd" class="d" d="m131.3 102.6c9.3-1.7 12.9 2.6 15.5 6-6.9 3.3-11.1-4.8-15.5-6z"/><path class="b" d="m131.2 102c4.8-0.9 8.1-0.2 10.6 1.1 2.6 1.4 4.2 3.4 5.5 5.1l0.4 0.6-0.6 0.3c-5 2.3-8.5-0.6-11.6-3.1-1.6-1.3-3-2.5-4.4-2.9zm10.1 2.2c-1.9-1-4.5-1.6-7.9-1.3 0.9 0.6 1.9 1.4 2.9 2.2 2.7 2.2 5.7 4.7 9.6 3.3-1.1-1.5-2.5-3.1-4.6-4.2z"/><path fill-rule="evenodd" class="d" d="m122 102.7c9.3-1.7 13.9 1.4 16.5 4.8-11.4 3.3-12-3.5-16.5-4.8z"/><path class="b" d="m121.9 102.1c4.8-0.8 8.4-0.5 11.1 0.6 2.7 1 4.6 2.7 6 4.5l0.5 0.7-0.8 0.2c-8.2 2.4-11.1-0.3-13.6-2.6-1-1-2-1.9-3.2-2.2v-1.2zm10.7 1.7c-2.2-0.9-5-1.2-8.6-0.8 0.7 0.5 1.3 1 1.9 1.6 2.2 2 4.7 4.3 11.6 2.6-1.2-1.4-2.8-2.6-4.9-3.4z"/><path fill-rule="evenodd" class="d" d="m112.1 102.7c9.3-1.7 13.9 1.4 16.5 4.8-11.4 3.3-12.1-3.6-16.5-4.8z"/><path class="b" d="m112 102.1c4.7-0.9 8.3-0.5 11 0.5 2.8 1.1 4.7 2.8 6 4.5l0.6 0.7-0.9 0.3c-8.1 2.3-11-0.4-13.5-2.7-1-0.9-2-1.8-3.3-2.2l0.1-1.1zm10.6 1.6c-2.1-0.8-4.9-1.2-8.5-0.7 0.7 0.4 1.3 1 1.9 1.6 2.2 2 4.7 4.3 11.5 2.5-1.1-1.3-2.7-2.6-4.9-3.4z"/><path class="e" d="m81.7 101.6l-1.6-4.8 1-0.3 0.7 2.1 1.2-2.8 1.3-0.5-1.1 2.5 2.9 2.3-1.3 0.4-2.1-1.8-0.5 1.1 0.5 1.5-1 0.3zm10.4-3.2l-1.1 0.3-0.8-1-1.9 0.6-0.1 1.2-1.1 0.3 0.5-5.4 1.1-0.3zm-2.4-1.5l-1.2-1.6-0.1 2zm4 0.9l-1.1-4.9 1-0.2 0.9 4.1 2.5-0.6 0.2 0.8-3.5 0.8zm5.3-1.1l-1-5 1-0.2 1 5zm3-0.6l-0.7-5.1 1.5-0.2 1.4 3.3 0.4-3.5 1.6-0.2 0.7 5-1 0.1-0.5-3.9-0.5 4.1-1 0.1-1.5-3.8 0.5 3.9-0.9 0.2zm11.6-1.5l-1.2 0.1-0.5-1.1-2 0.2-0.3 1.2-1.1 0.1 1.5-5.3h1.1l2.5 4.8zm-2.1-1.8l-0.9-1.8-0.5 1.9 1.4-0.1zm3.7 1.6l-0.2-5 1-0.1 2.2 3.3-0.1-3.3 0.9-0.1 0.2 5.1h-1l-2.2-3.2 0.1 3.3-0.9 0.1zm7.4-0.3l-0.1-4.2h-1.5v-0.9l4-0.1v0.9h-1.5l0.1 4.2-1 0.1zm8.3 0.1h-1.1l-0.4-1.2h-2l-0.5 1.1h-1.1l2.1-5h1.1zm-1.9-2.1l-0.6-1.8-0.8 1.8zm3.6 2.2l0.3-5h1l1.9 3.6 0.2-3.4h1l-0.4 5.1-1-0.1-1.8-3.4-0.3 3.3zm8.3-0.6l0.1-0.9 1.9 0.2-0.1 1zm6.5 2.3l0.7-4.1-1.5-0.3 0.2-0.8 4 0.7-0.2 0.8-1.5-0.2-0.7 4.1zm4.1 0.9l1.2-4.9 1 0.2-1.2 4.9zm3.1 0.7l1.2-4.9 1.5 0.4v3.6l1.8-3.2 1.5 0.4-1.3 4.9-0.9-0.2 1-3.9-2 3.7-0.9-0.3v-4.1l-1 3.9-0.9-0.3zm8.4-2.9l1 0.3-0.9 2.6q-0.2 0.6-0.2 0.8-0.1 0.3 0.1 0.6 0.2 0.2 0.6 0.4 0.4 0.1 0.7 0 0.2-0.1 0.4-0.3 0.1-0.2 0.3-0.8l0.9-2.7 1 0.4-0.9 2.5q-0.3 0.8-0.5 1.2-0.2 0.3-0.5 0.5-0.3 0.1-0.7 0.2-0.4 0-1-0.2-0.7-0.2-1-0.5-0.3-0.3-0.4-0.6-0.1-0.4-0.1-0.6 0.1-0.5 0.4-1.3l0.8-2.6zm4.3 6.9l1.9-4.7 2 0.8q0.7 0.3 1 0.6 0.3 0.3 0.4 0.7 0.1 0.4-0.1 0.8-0.2 0.5-0.7 0.7-0.4 0.3-1.1 0.1 0.3 0.3 0.4 0.6 0.1 0.3 0.2 1l0.2 1.1-1.1-0.4-0.3-1.3q-0.1-0.7-0.2-0.9-0.1-0.2-0.2-0.3-0.1-0.1-0.5-0.3l-0.2-0.1-0.8 2-0.9-0.4zm2-2.3l0.8 0.3q0.6 0.2 0.8 0.3 0.2 0 0.4-0.1 0.1-0.1 0.2-0.3 0.1-0.3 0.1-0.5-0.1-0.2-0.3-0.3-0.1-0.1-0.7-0.3l-0.8-0.3-0.4 1.2z"/><path fill-rule="evenodd" class="c" d="m115.2 221.1c-14.6-1.6-27.9-7.2-40.2-16.2-1.3 0.8-2.9 1.2-4.5 1.2-4.9 0-8.9-3.9-8.9-8.8 0-4.9 4-8.9 8.9-8.9 2.6 0 3.2 0.4 4.9 1.9 10.4 9.4 22.9 16.8 40.8 18.7 8.1 0.9 16.4 0.7 24.4-0.6 15.4-2.7 26.6-9.5 36.1-18.1 1.6-1.5 2.3-1.9 4.9-1.9 4.9 0 8.9 4 8.9 8.9 0 4.9-4 8.8-8.9 8.8-1.7 0-3.2-0.4-4.6-1.2-10.8 8-22.4 13.2-35.1 15.5-8.6 1.5-18 1.6-26.7 0.7z"/><path class="e" d="m115.1 221.7c-7.3-0.8-14.4-2.6-21.1-5.4-6.6-2.7-12.9-6.3-19-10.7q-1 0.5-2 0.8-1.2 0.3-2.5 0.3c-2.6 0-5-1-6.7-2.7-1.7-1.7-2.8-4.1-2.8-6.7 0-2.6 1.1-5 2.8-6.7 1.7-1.7 4.1-2.8 6.7-2.8 1.4 0 2.2 0.2 3 0.5 0.8 0.3 1.4 0.8 2.3 1.6 5.2 4.6 10.9 8.8 17.5 12 6.6 3.3 14.1 5.6 23 6.5 4 0.5 8.2 0.6 12.3 0.5 4-0.1 8-0.5 11.9-1.1 7.6-1.3 14.2-3.7 20.1-6.8 5.8-3.1 11-6.9 15.7-11.1 0.8-0.8 1.5-1.3 2.2-1.6 0.8-0.3 1.7-0.5 3.1-0.5 2.6 0 4.9 1.1 6.7 2.8 1.7 1.7 2.7 4.1 2.7 6.7 0 2.6-1 5-2.7 6.7-1.8 1.7-4.1 2.7-6.7 2.7q-1.3 0-2.6-0.3-1-0.3-1.9-0.8-8.1 5.9-16.7 9.7-8.9 3.9-18.4 5.6c-4.2 0.8-8.7 1.2-13.1 1.3-4.7 0.2-9.3 0-13.8-0.5zm-20.7-6.5c6.7 2.7 13.6 4.5 20.8 5.3 4.5 0.5 9.1 0.7 13.6 0.6 4.4-0.2 8.8-0.6 13-1.3 6.3-1.1 12.3-3 18.1-5.5 5.8-2.6 11.4-5.9 16.8-9.9l0.3-0.2 0.3 0.2q1 0.6 2.1 0.9 1 0.3 2.2 0.3c2.2 0 4.3-1 5.8-2.5 1.5-1.4 2.5-3.5 2.5-5.8 0-2.3-1-4.3-2.5-5.8-1.5-1.5-3.6-2.5-5.8-2.5-1.3 0-2 0.1-2.6 0.4-0.6 0.2-1.2 0.7-1.9 1.3-4.8 4.4-10 8.2-16 11.4-5.9 3.1-12.6 5.5-20.4 6.8q-5.9 1.1-12.1 1.2c-4.2 0.1-8.4 0-12.5-0.5-9-1-16.6-3.3-23.3-6.6-6.8-3.3-12.6-7.5-17.8-12.3-0.8-0.6-1.3-1.1-1.9-1.3-0.6-0.3-1.4-0.4-2.6-0.4-2.3 0-4.4 1-5.9 2.5-1.5 1.5-2.4 3.5-2.4 5.8 0 2.3 0.9 4.4 2.4 5.8 1.5 1.5 3.6 2.5 5.9 2.5q1.1 0 2.2-0.3 1.1-0.3 2-0.9l0.4-0.2 0.3 0.2c6.1 4.5 12.4 8.1 19.1 10.8z"/><path class="b" d="m80.5 204.3l-0.9-0.7 2.5-3.8 0.9 0.6-0.4 0.6q0.5-0.3 0.8-0.3 0.2 0 0.5 0.2 0.3 0.2 0.5 0.6l-0.9 0.7q-0.2-0.4-0.4-0.5-0.2-0.1-0.4-0.1-0.2 0-0.5 0.3-0.3 0.2-0.9 1.2l-0.8 1.2zm7.6 4.9l0.3-0.6q-0.4 0.2-0.8 0.2-0.5-0.1-0.8-0.3-0.4-0.2-0.6-0.5-0.2-0.4-0.1-0.8 0-0.4 0.4-0.9l1.5-2.5 1 0.6-1.1 1.8q-0.5 0.8-0.6 1 0 0.2 0 0.4 0.1 0.2 0.3 0.3 0.3 0.2 0.6 0.2 0.2-0.1 0.5-0.2 0.2-0.2 0.7-1.1l1-1.6 0.9 0.6-2.3 3.9-0.9-0.5zm9.1-2.3l-0.9 2.1q0.8-0.4 1.5-0.1 0.4 0.1 0.6 0.4 0.2 0.3 0.3 0.6 0 0.2-0.1 0.5 0 0.3-0.3 0.9l-1 2.5-1.1-0.5 1-2.2q0.3-0.7 0.3-0.9 0-0.2-0.1-0.3-0.1-0.2-0.3-0.3-0.3-0.1-0.5-0.1-0.3 0.1-0.5 0.3-0.2 0.2-0.5 0.8l-0.8 2.1-1.1-0.4 2.5-5.9 1 0.5zm7.8 9.2l0.2-0.6q-0.3 0.3-0.8 0.4-0.4 0.1-0.8 0-0.4-0.1-0.7-0.4-0.3-0.3-0.3-0.7-0.1-0.4 0.1-1l0.7-2.8 1.1 0.3-0.5 2q-0.3 1-0.3 1.2 0 0.2 0.2 0.4 0.1 0.1 0.4 0.2 0.2 0.1 0.5 0 0.3-0.2 0.4-0.4 0.2-0.2 0.4-1.2l0.5-1.9 1.1 0.3-1.2 4.5-1-0.3zm6.8-4l0.1-1.1 1.1 0.1-0.1 1.1zm-0.5 5.2l0.4-4.5 1.2 0.1-0.5 4.6zm8.6-1.1v-1.2h2.3v1.3zm10.3 1.5h-1.1l-0.3-4.6h1.1v0.6q0.3-0.4 0.5-0.6 0.2-0.1 0.5-0.2 0.3 0 0.7 0.2l-0.3 1.1q-0.3-0.2-0.5-0.2-0.3 0.1-0.4 0.2-0.2 0.1-0.2 0.5-0.1 0.4-0.1 1.6l0.1 1.4zm6.7-3.9l-1.1-0.1q0.1-0.6 0.5-1 0.3-0.4 1.2-0.5 0.7-0.1 1.1 0 0.4 0.2 0.6 0.4 0.2 0.3 0.3 1.1l0.2 1.4q0.1 0.6 0.2 0.9 0.1 0.3 0.3 0.6l-1.1 0.1q-0.1-0.1-0.2-0.3-0.1-0.1-0.1-0.2-0.2 0.4-0.5 0.6-0.3 0.2-0.7 0.2-0.7 0.1-1.1-0.2-0.4-0.3-0.5-0.9-0.1-0.4 0.1-0.7 0.1-0.4 0.4-0.6 0.3-0.2 0.9-0.4 0.7-0.2 1-0.4v-0.1q-0.1-0.4-0.2-0.5-0.2-0.1-0.7-0.1-0.3 0.1-0.4 0.2-0.2 0.2-0.2 0.5zm1.6 0.8q-0.2 0.1-0.6 0.3-0.5 0.1-0.6 0.2-0.2 0.2-0.2 0.5 0.1 0.2 0.3 0.4 0.2 0.2 0.4 0.1 0.3 0 0.6-0.3 0.2-0.2 0.2-0.4 0-0.2 0-0.6l-0.1-0.2zm6.1-5.5l0.6 2.2q0.3-0.8 1.1-0.9 0.4-0.1 0.7-0.1 0.3 0.1 0.6 0.3 0.2 0.2 0.3 0.5 0.1 0.3 0.3 0.9l0.6 2.6-1.1 0.2-0.5-2.3q-0.2-0.7-0.3-0.9-0.1-0.2-0.3-0.2-0.2-0.1-0.5 0-0.2 0-0.4 0.2-0.2 0.2-0.2 0.5-0.1 0.3 0.1 0.9l0.5 2.2-1.1 0.3-1.5-6.1 1.1-0.3zm8.8 0.3l-1.1 0.2q0-0.7 0.2-1.1 0.3-0.5 1.1-0.8 0.7-0.3 1.1-0.2 0.4 0 0.7 0.2 0.2 0.2 0.5 1l0.5 1.3q0.3 0.5 0.4 0.8 0.2 0.2 0.4 0.5l-1 0.4q-0.1-0.1-0.2-0.3-0.1-0.1-0.1-0.1-0.2 0.4-0.4 0.7-0.3 0.2-0.6 0.4-0.7 0.2-1.1 0-0.5-0.2-0.8-0.8-0.1-0.3-0.1-0.7 0.1-0.3 0.3-0.6 0.2-0.3 0.7-0.6 0.7-0.4 1-0.7l-0.1-0.1q-0.1-0.3-0.3-0.4-0.2-0.1-0.7 0.1-0.2 0.1-0.3 0.3-0.2 0.2-0.1 0.5zm1.7 0.4q-0.1 0.1-0.5 0.4-0.4 0.3-0.5 0.4-0.2 0.3-0.1 0.5 0.1 0.2 0.4 0.4 0.2 0.1 0.5 0 0.2-0.2 0.4-0.5 0.1-0.2 0.1-0.4 0-0.2-0.2-0.6zm3.9-4.6l1.1-0.5 2.4 2.4-0.6-3.4 1-0.5 0.8 4.6 0.1 0.8q0.1 0.4 0 0.7 0 0.2-0.1 0.4-0.1 0.2-0.2 0.4-0.2 0.2-0.5 0.4-0.3 0.1-0.6 0.2l-0.6-0.8q0.3-0.1 0.5-0.2 0.3-0.2 0.4-0.5 0-0.3-0.1-0.7l-3.6-3.3zm12.6-2l-0.4-0.6q0 0.4-0.2 0.8-0.2 0.4-0.5 0.6-0.4 0.2-0.8 0.3-0.4 0-0.7-0.3-0.4-0.2-0.7-0.7l-1.6-2.5 1-0.6 1.1 1.8q0.5 0.8 0.7 0.9 0.2 0.2 0.4 0.2 0.2 0 0.4-0.1 0.3-0.1 0.4-0.4 0.1-0.3 0-0.5-0.1-0.3-0.6-1.1l-1-1.7 0.9-0.6 2.5 3.9-0.9 0.6z"/></svg>